# xmcd CD database file
#
# Track frame offsets:
#	150
#	25209
#	58930
#	77836
#	107743
#	133608
#	152384
#	168825
#
# Disc length: 2536 seconds
#
# Revision: 0
# Processed by: cddbd v1.5.2PL0 Copyright (c) Steve Scherf et al.
# Submitted via: CDex 2.13
#
DISCID=5c09e608
DTITLE=Passport - Running In Real Time
DYEAR=1985
DGENRE=Jazz
TTITLE0=At Large
TTITLE1=Auryn*
TTITLE2=Talisman
TTITLE3=Help Me
TTITLE4=Joy Riding
TTITLE5=Slap Shot
TTITLE6=Mr. Mystery
TTITLE7=Running In Real Time
EXTD=YEAR: 1985
EXTT0=
EXTT1=
EXTT2=
EXTT3=
EXTT4=
EXTT5=
EXTT6=
EXTT7=
PLAYORDER=
